# xmcd
#
# Track frame offsets:
#	150
#	13499
#	29042
#	46400
#	58366
#	74116
#	96605
#	114712
#	130007
#	142502
#	154121
#	169334
#
# Disc length: 2460 seconds
#
# Revision: 0
# Processed by: cddbd v1.4PL0 Copyright (c) Steve Scherf et al.
# Submitted via: dBpowerAMP V4.0
#
DISCID=ba099a0c
DTITLE=No Justice - Far From Everything
DYEAR=2003
DGENRE=Country
TTITLE0=Twenty Four Days
TTITLE1=Only You
TTITLE2=The Toast
TTITLE3=House Of Pain
TTITLE4=Feels Like Rain Time
TTITLE5=Three Verses
TTITLE6=Devil's Road
TTITLE7=Turn To A Smile
TTITLE8=Far From Everything
TTITLE9=Self Expression
TTITLE10=Shine A Light
TTITLE11=Mexican Morning
EXTD=Oklahoma Country Band
EXTT0=
EXTT1=
EXTT2=
EXTT3=
EXTT4=
EXTT5=
EXTT6=
EXTT7=
EXTT8=
EXTT9=
EXTT10=
EXTT11=
PLAYORDER=
